<?xml version="1.0" encoding="UTF-8" standalone="no"?>
<!DOCTYPE svg PUBLIC "-//W3C//DTD SVG 1.0//EN" "http://www.w3.org/TR/2001/PR-SVG-20010719/DTD/svg10.dtd">
<svg width="32cm" height="12cm" viewBox="17 14 639 227" xmlns="http://www.w3.org/2000/svg" xmlns:xlink="http://www.w3.org/1999/xlink">
  <rect style="fill: none; fill-opacity:0; stroke-width: 2; stroke-dasharray: 4; stroke: #ffffff" x="62" y="16" width="514" height="74"/>
  <g>
    <g>
      <rect style="fill: #ffffff" x="99" y="21" width="140" height="60"/>
      <rect style="fill: none; fill-opacity:0; stroke-width: 2; stroke: #000000" x="99" y="21" width="140" height="60"/>
    </g>
    <text font-size="12.7998" style="fill: #000000;text-anchor:middle;font-family:sans-serif;font-style:normal;font-weight:normal" x="169" y="51">
      <tspan x="169" y="51">Mozilla Socorro</tspan>
      <tspan x="169" y="67">Collectors</tspan>
    </text>
  </g>
  <g>
    <g>
      <rect style="fill: #ffffff" x="394.1" y="20.7" width="140" height="60"/>
      <rect style="fill: none; fill-opacity:0; stroke-width: 2; stroke: #000000" x="394.1" y="20.7" width="140" height="60"/>
    </g>
    <text font-size="12.7998" style="fill: #000000;text-anchor:middle;font-family:sans-serif;font-style:normal;font-weight:normal" x="464.1" y="50.7">
      <tspan x="464.1" y="50.7">Mozilla Socorro</tspan>
    </text>
  </g>
  <g>
    <line style="fill: none; fill-opacity:0; stroke-width: 2; stroke: #000000" x1="239" y1="51" x2="384.364" y2="50.7188"/>
    <polygon style="fill: #000000" points="391.864,50.7043 381.874,55.7237 384.364,50.7188 381.854,45.7237 "/>
    <polygon style="fill: none; fill-opacity:0; stroke-width: 2; stroke: #000000" points="391.864,50.7043 381.874,55.7237 384.364,50.7188 381.854,45.7237 "/>
  </g>
  <g>
    <line style="fill: none; fill-opacity:0; stroke-width: 2; stroke: #000000" x1="239" y1="51" x2="467.003" y2="145.28"/>
    <polygon style="fill: #000000" points="473.934,148.146 462.782,148.945 467.003,145.28 466.603,139.704 "/>
    <polygon style="fill: none; fill-opacity:0; stroke-width: 2; stroke: #000000" points="473.934,148.146 462.782,148.945 467.003,145.28 466.603,139.704 "/>
  </g>
  <g>
    <line style="fill: none; fill-opacity:0; stroke-width: 2; stroke: #000000" x1="239" y1="51" x2="262.922" y2="160.488"/>
    <polygon style="fill: #000000" points="264.523,167.815 257.503,159.113 262.922,160.488 267.273,156.979 "/>
    <polygon style="fill: none; fill-opacity:0; stroke-width: 2; stroke: #000000" points="264.523,167.815 257.503,159.113 262.922,160.488 267.273,156.979 "/>
  </g>
  <g>
    <g>
      <rect style="fill: #ffffff" x="515" y="159" width="140" height="60"/>
      <rect style="fill: none; fill-opacity:0; stroke-width: 2; stroke: #000000" x="515" y="159" width="140" height="60"/>
    </g>
    <g>
      <rect style="fill: #ffffff" x="495" y="139" width="140" height="60"/>
      <rect style="fill: none; fill-opacity:0; stroke-width: 2; stroke: #000000" x="495" y="139" width="140" height="60"/>
    </g>
    <g>
      <rect style="fill: #ffffff" x="476" y="119" width="140" height="60"/>
      <rect style="fill: none; fill-opacity:0; stroke-width: 2; stroke: #000000" x="476" y="119" width="140" height="60"/>
    </g>
    <text font-size="12.7998" style="fill: #000000;text-anchor:middle;font-family:sans-serif;font-style:normal;font-weight:normal" x="548.9" y="152.3">
      <tspan x="548.9" y="152.3">Carrier Socorro</tspan>
    </text>
  </g>
  <g>
    <g>
      <rect style="fill: #ffffff" x="305" y="180" width="140" height="60"/>
      <rect style="fill: none; fill-opacity:0; stroke-width: 2; stroke: #000000" x="305" y="180" width="140" height="60"/>
    </g>
    <g>
      <rect style="fill: #ffffff" x="285" y="160" width="140" height="60"/>
      <rect style="fill: none; fill-opacity:0; stroke-width: 2; stroke: #000000" x="285" y="160" width="140" height="60"/>
    </g>
    <g>
      <rect style="fill: #ffffff" x="265" y="140" width="140" height="60"/>
      <rect style="fill: none; fill-opacity:0; stroke-width: 2; stroke: #000000" x="265" y="140" width="140" height="60"/>
    </g>
    <text font-size="12.7998" style="fill: #000000;text-anchor:middle;font-family:sans-serif;font-style:normal;font-weight:normal" x="338" y="173">
      <tspan x="338" y="173">JavaScript Socorro</tspan>
    </text>
  </g>
  <g>
    <line style="fill: none; fill-opacity:0; stroke-width: 6; stroke: #000000" x1="21" y1="50" x2="84.793" y2="50.8179"/>
    <polygon style="fill: #000000" points="92.2923,50.914 82.2291,55.7854 84.793,50.8179 82.3573,45.7862 "/>
    <polygon style="fill: none; fill-opacity:0; stroke-width: 6; stroke: #000000" points="92.2923,50.914 82.2291,55.7854 84.793,50.8179 82.3573,45.7862 "/>
  </g>
</svg>
